<?xml version="1.0" encoding="utf-8"?>
<!-- Generator: Adobe Illustrator 21.0.0, SVG Export Plug-In . SVG Version: 6.00 Build 0)  -->
<svg version="1.1" id="Layer_1" xmlns="http://www.w3.org/2000/svg" xmlns:xlink="http://www.w3.org/1999/xlink" x="0px" y="0px"
	 viewBox="0 0 200 200" style="enable-background:new 0 0 200 200;" xml:space="preserve">
<style type="text/css">
	.st0{fill:#FFFFFF;}
	.st1{fill:#F50057;}
</style>
<path class="st0" d="M149,200H49c-27.6,0-50-22.4-50-50l0-100C-1,22.4,21.4,0,49,0l100,0c27.6,0,50,22.4,50,50v100
	C199,177.6,176.6,200,149,200z"/>
<path class="st1" d="M120.7,152.5l43.3-75c9.6-16.7-2.4-37.5-21.7-37.5H55.7C36.5,40,24.4,60.8,34,77.5l43.3,75
	C87,169.2,111,169.2,120.7,152.5z"/>
<path class="st0" d="M112,113.7l13.3-23c5.8-10-1.4-22.5-13-22.5H85.7c-11.5,0-18.8,12.5-13,22.5l13.3,23
	C91.8,123.7,106.2,123.7,112,113.7z"/>
</svg>
